<svg width="493" height="379" viewBox="0 0 493 379" fill="none" xmlns="http://www.w3.org/2000/svg">
<path d="M70 379H0L314 77H377.5V379H312.5V304H224L147.5 379H124L292.5 216.5V239L270.5 260.5H310.5V150.5L70 379Z" fill="#3E3F94"/>
<path d="M139 203.457C139.861 210.464 147.359 203.457 147.359 203.457C147.359 203.457 158.999 196.015 159.734 195.285C161.428 193.916 166.846 189.223 166.846 189.223C170.32 185.499 177.136 178.725 183.572 171.847C191.878 162.971 197.032 158.385 204.423 148.732C209.803 141.705 212.061 137.223 217.122 129.963C223.762 120.439 227.111 114.79 234.57 105.893C241.108 98.0943 245.123 93.9917 252.513 86.9952C258.785 81.0572 262.493 77.919 269.243 72.5311C273.907 68.809 276.445 66.5936 281.438 63.3272C290.146 57.6307 294.579 55.7024 305.291 51.452C316.002 47.2015 319.006 45.8064 319.006 45.8064C319.006 45.8064 337.318 39.2854 349.403 39.841C361.302 40.388 378.702 48.3274 378.702 48.3274C381.858 50.5987 387.263 56.1666 387.263 56.1666C389.45 58.6755 392.029 61.5794 393.726 64.8155L401.81 78.962L407.298 92.6988C407.298 92.6988 409.318 100.821 409.557 105.546C409.802 110.394 410.689 118.226 410.689 118.226C411.091 122.853 411.411 150.351 411.411 150.351C411.411 150.351 408.694 171.34 412.638 173.406C414.17 174.208 417.488 174.691 417.488 174.691C423.269 174.368 429.174 174.533 434.376 174.936C439.578 175.338 446.034 175.275 452.236 175.905C458.439 176.535 461.017 177.085 466.679 177.197C476.897 177.399 492.703 174.434 492.703 174.434L491.803 165.785C491.803 165.785 489.5 160 488.575 153.663C487.649 147.325 487.123 137.507 487.123 137.507C487.123 137.507 486.431 127.195 484.694 120.859C482.635 113.347 476.687 102.591 476.687 102.591L466.914 83.1289L458.182 68.1703L446.065 53.8808L429.334 36.6655L408.893 21.8888L384.219 9.27184L365.881 3.95598C365.881 3.95598 345.218 0.610418 337.465 0L312.798 0.329667L292.177 3.4833L274.637 5.75217L254.714 11.0001C250.763 12.2897 245.552 14.1617 239.838 16.5802L239.363 16.781C232.055 19.8734 227.769 21.6874 220.862 25.8787C212.699 30.8327 201.388 40.6651 201.388 40.6651C201.388 40.6651 188.534 51.8073 182.297 60.5977C177.147 67.8551 171.449 80.637 171.449 80.637C171.449 80.637 161.85 102.909 158.798 111.204C155.746 119.499 155.286 122.315 153.145 129.469C150.558 138.116 148.663 142.859 146.77 151.685C143.951 164.832 137.359 190.111 139 203.457Z" fill="#363435"/>
</svg>
