<svg width="980" height="391" viewBox="0 0 980 391" fill="none" xmlns="http://www.w3.org/2000/svg">
<path d="M405.964 304V190.545H446.405C455.195 190.545 462.489 192.06 468.287 195.088C474.122 198.116 478.48 202.308 481.361 207.663C484.241 212.982 485.682 219.131 485.682 226.111C485.682 233.054 484.223 239.166 481.305 244.447C478.425 249.692 474.067 253.773 468.232 256.69C462.433 259.608 455.139 261.067 446.349 261.067H415.714V246.331H444.798C450.338 246.331 454.844 245.537 458.315 243.949C461.824 242.361 464.391 240.053 466.016 237.024C467.641 233.996 468.453 230.358 468.453 226.111C468.453 221.827 467.622 218.115 465.96 214.976C464.335 211.837 461.768 209.436 458.26 207.774C454.788 206.075 450.227 205.226 444.577 205.226H423.082V304H405.964ZM461.972 252.812L490.003 304H470.503L443.026 252.812H461.972ZM500.916 205.281V190.545H588.722V205.281H553.322V304H536.26V205.281H500.916ZM625.243 190.545V304H608.125V190.545H625.243ZM712.051 220.349C711.46 215.105 709.022 211.043 704.738 208.162C700.454 205.244 695.062 203.786 688.562 203.786C683.909 203.786 679.883 204.524 676.485 206.001C673.088 207.442 670.447 209.436 668.564 211.984C666.717 214.496 665.794 217.358 665.794 220.571C665.794 223.267 666.422 225.594 667.677 227.551C668.97 229.509 670.65 231.152 672.718 232.482C674.824 233.774 677.076 234.864 679.477 235.75C681.877 236.599 684.186 237.301 686.402 237.855L697.481 240.736C701.1 241.622 704.812 242.822 708.616 244.337C712.42 245.851 715.947 247.845 719.197 250.32C722.447 252.794 725.069 255.859 727.064 259.516C729.095 263.172 730.11 267.548 730.11 272.645C730.11 279.071 728.449 284.777 725.125 289.763C721.838 294.749 717.055 298.682 710.777 301.562C704.535 304.443 696.983 305.884 688.119 305.884C679.625 305.884 672.275 304.536 666.071 301.839C659.866 299.143 655.01 295.321 651.501 290.372C647.993 285.386 646.054 279.477 645.684 272.645H662.858C663.19 276.744 664.52 280.161 666.846 282.893C669.21 285.589 672.22 287.602 675.876 288.932C679.569 290.224 683.613 290.871 688.008 290.871C692.846 290.871 697.149 290.114 700.916 288.599C704.72 287.048 707.711 284.906 709.89 282.173C712.069 279.403 713.159 276.172 713.159 272.479C713.159 269.118 712.199 266.366 710.278 264.224C708.395 262.082 705.828 260.31 702.578 258.906C699.365 257.503 695.727 256.266 691.664 255.195L678.258 251.538C669.173 249.064 661.971 245.426 656.653 240.625C651.372 235.824 648.731 229.472 648.731 221.568C648.731 215.031 650.504 209.325 654.049 204.45C657.595 199.575 662.396 195.79 668.453 193.094C674.51 190.361 681.342 188.994 688.95 188.994C696.632 188.994 703.409 190.342 709.281 193.038C715.19 195.734 719.843 199.446 723.241 204.173C726.639 208.864 728.412 214.256 728.559 220.349H712.051ZM759.236 304H741.065L781.893 190.545H801.67L842.499 304H824.328L792.253 211.153H791.366L759.236 304ZM762.283 259.571H821.226V273.974H762.283V259.571ZM950.455 190.545V304H934.722L877.053 220.793H876V304H858.882V190.545H874.726L932.451 273.864H933.503V190.545H950.455Z" fill="#3E3F94"/>
<path d="M421.104 366.258H429.685L435.725 374.133L438.576 377.633L448.2 390.193H439.281L432.846 381.811L430.644 378.762L421.104 366.258ZM450.063 356.097C450.063 362.269 448.934 367.576 446.676 372.016C444.418 376.438 441.323 379.844 437.39 382.234C433.476 384.605 429.026 385.79 424.04 385.79C419.034 385.79 414.565 384.605 410.633 382.234C406.719 379.844 403.633 376.429 401.375 371.988C399.117 367.547 397.988 362.25 397.988 356.097C397.988 349.925 399.117 344.629 401.375 340.207C403.633 335.766 406.719 332.36 410.633 329.989C414.565 327.599 419.034 326.404 424.04 326.404C429.026 326.404 433.476 327.599 437.39 329.989C441.323 332.36 444.418 335.766 446.676 340.207C448.934 344.629 450.063 349.925 450.063 356.097ZM441.426 356.097C441.426 351.393 440.664 347.432 439.14 344.215C437.635 340.978 435.565 338.532 432.931 336.876C430.315 335.201 427.351 334.364 424.04 334.364C420.709 334.364 417.736 335.201 415.121 336.876C412.505 338.532 410.435 340.978 408.911 344.215C407.406 347.432 406.653 351.393 406.653 356.097C406.653 360.802 407.406 364.772 408.911 368.008C410.435 371.226 412.505 373.672 415.121 375.347C417.736 377.003 420.709 377.831 424.04 377.831C427.351 377.831 430.315 377.003 432.931 375.347C435.565 373.672 437.635 371.226 439.14 368.008C440.664 364.772 441.426 360.802 441.426 356.097ZM514.006 327.195H522.756V365.214C522.756 369.26 521.806 372.844 519.905 375.968C518.005 379.073 515.333 381.519 511.889 383.306C508.446 385.075 504.41 385.96 499.781 385.96C495.17 385.96 491.144 385.075 487.7 383.306C484.257 381.519 481.585 379.073 479.684 375.968C477.784 372.844 476.834 369.26 476.834 365.214V327.195H485.555V364.508C485.555 367.124 486.129 369.448 487.277 371.48C488.443 373.512 490.09 375.112 492.216 376.278C494.343 377.426 496.864 378 499.781 378C502.716 378 505.247 377.426 507.373 376.278C509.518 375.112 511.155 373.512 512.284 371.48C513.432 369.448 514.006 367.124 514.006 364.508V327.195ZM556.216 385H546.958L567.76 327.195H577.836L598.638 385H589.38L573.038 337.695H572.586L556.216 385ZM557.768 362.363H587.8V369.702H557.768V362.363ZM622.882 385V327.195H643.486C647.965 327.195 651.681 327.966 654.635 329.509C657.608 331.052 659.829 333.188 661.297 335.916C662.764 338.626 663.498 341.759 663.498 345.315C663.498 348.853 662.755 351.967 661.268 354.658C659.801 357.33 657.58 359.409 654.607 360.896C651.653 362.382 647.937 363.125 643.458 363.125H627.85V355.618H642.668C645.49 355.618 647.786 355.213 649.555 354.404C651.342 353.595 652.65 352.419 653.478 350.876C654.306 349.333 654.72 347.479 654.72 345.315C654.72 343.133 654.297 341.242 653.45 339.642C652.622 338.043 651.314 336.82 649.527 335.973C647.758 335.107 645.434 334.674 642.555 334.674H631.604V385H622.882ZM651.418 358.92L665.7 385H655.764L641.765 358.92H651.418ZM687.156 334.703V327.195H731.893V334.703H713.858V385H705.164V334.703H687.156ZM757.676 385V327.195H793.917V334.703H766.397V352.315H792.026V359.795H766.397V377.492H794.256V385H757.676ZM821.463 385V327.195H842.068C846.546 327.195 850.262 327.966 853.217 329.509C856.19 331.052 858.41 333.188 859.878 335.916C861.346 338.626 862.079 341.759 862.079 345.315C862.079 348.853 861.336 351.967 859.85 354.658C858.382 357.33 856.162 359.409 853.188 360.896C850.234 362.382 846.518 363.125 842.039 363.125H826.431V355.618H841.249C844.072 355.618 846.367 355.213 848.136 354.404C849.924 353.595 851.231 352.419 852.059 350.876C852.887 349.333 853.301 347.479 853.301 345.315C853.301 343.133 852.878 341.242 852.031 339.642C851.203 338.043 849.896 336.82 848.108 335.973C846.339 335.107 844.015 334.674 841.136 334.674H830.185V385H821.463ZM849.999 358.92L864.281 385H854.346L840.346 358.92H849.999ZM920.116 342.38C919.815 339.708 918.573 337.638 916.39 336.17C914.208 334.684 911.46 333.941 908.149 333.941C905.778 333.941 903.727 334.317 901.995 335.07C900.264 335.803 898.919 336.82 897.959 338.118C897.018 339.397 896.548 340.856 896.548 342.493C896.548 343.866 896.868 345.052 897.508 346.049C898.166 347.047 899.022 347.884 900.076 348.561C901.149 349.22 902.297 349.775 903.52 350.227C904.743 350.659 905.919 351.017 907.048 351.299L912.693 352.767C914.537 353.218 916.428 353.83 918.366 354.601C920.304 355.373 922.101 356.389 923.757 357.65C925.413 358.91 926.749 360.472 927.765 362.335C928.8 364.198 929.317 366.428 929.317 369.025C929.317 372.299 928.471 375.206 926.777 377.746C925.103 380.286 922.666 382.29 919.467 383.758C916.287 385.226 912.439 385.96 907.923 385.96C903.595 385.96 899.85 385.273 896.689 383.899C893.528 382.526 891.053 380.578 889.266 378.057C887.478 375.516 886.49 372.506 886.302 369.025H895.052C895.221 371.113 895.899 372.854 897.084 374.246C898.289 375.62 899.822 376.645 901.685 377.323C903.567 377.981 905.627 378.311 907.866 378.311C910.331 378.311 912.523 377.925 914.443 377.153C916.381 376.363 917.905 375.272 919.015 373.879C920.125 372.468 920.681 370.822 920.681 368.94C920.681 367.228 920.191 365.826 919.213 364.734C918.253 363.643 916.945 362.74 915.29 362.025C913.652 361.31 911.799 360.679 909.729 360.134L902.899 358.271C898.27 357.01 894.6 355.157 891.891 352.71C889.2 350.264 887.855 347.028 887.855 343.001C887.855 339.67 888.758 336.763 890.564 334.279C892.371 331.795 894.817 329.867 897.903 328.493C900.989 327.101 904.47 326.404 908.346 326.404C912.26 326.404 915.713 327.091 918.705 328.465C921.715 329.839 924.086 331.73 925.818 334.138C927.549 336.528 928.452 339.275 928.527 342.38H920.116Z" fill="#363435"/>
<path d="M70 379H0L314 77H377.5V379H312.5V304H224L147.5 379H124L292.5 216.5V239L270.5 260.5H310.5V150.5L70 379Z" fill="#3E3F94"/>
<path d="M139 203.457C139.861 210.464 147.359 203.457 147.359 203.457C147.359 203.457 158.999 196.015 159.734 195.285C161.428 193.916 166.846 189.223 166.846 189.223C170.32 185.499 177.136 178.725 183.572 171.847C191.878 162.971 197.032 158.385 204.423 148.732C209.803 141.705 212.061 137.223 217.122 129.963C223.762 120.439 227.111 114.79 234.57 105.893C241.108 98.0943 245.123 93.9917 252.513 86.9952C258.785 81.0572 262.493 77.919 269.243 72.5311C273.907 68.809 276.445 66.5936 281.438 63.3272C290.146 57.6307 294.579 55.7024 305.291 51.452C316.002 47.2015 319.006 45.8064 319.006 45.8064C319.006 45.8064 337.318 39.2854 349.403 39.841C361.302 40.388 378.702 48.3274 378.702 48.3274C381.858 50.5987 387.263 56.1666 387.263 56.1666C389.45 58.6755 392.029 61.5794 393.726 64.8155L401.81 78.962L407.298 92.6988C407.298 92.6988 409.318 100.821 409.557 105.546C409.802 110.394 410.689 118.226 410.689 118.226C411.091 122.853 411.411 150.351 411.411 150.351C411.411 150.351 408.694 171.34 412.638 173.406C414.17 174.208 417.488 174.691 417.488 174.691C423.269 174.368 429.174 174.533 434.376 174.936C439.578 175.338 446.034 175.275 452.236 175.905C458.439 176.535 461.017 177.085 466.679 177.197C476.897 177.399 492.703 174.434 492.703 174.434L491.803 165.785C491.803 165.785 489.5 160 488.575 153.663C487.649 147.325 487.123 137.507 487.123 137.507C487.123 137.507 486.431 127.195 484.694 120.859C482.635 113.347 476.687 102.591 476.687 102.591L466.914 83.1289L458.182 68.1703L446.065 53.8808L429.334 36.6655L408.893 21.8888L384.219 9.27184L365.881 3.95598C365.881 3.95598 345.218 0.610418 337.465 0L312.798 0.329667L292.177 3.4833L274.637 5.75217L254.714 11.0001C250.763 12.2897 245.552 14.1617 239.838 16.5802L239.363 16.781C232.055 19.8734 227.769 21.6874 220.862 25.8787C212.699 30.8327 201.388 40.6651 201.388 40.6651C201.388 40.6651 188.534 51.8073 182.297 60.5977C177.147 67.8551 171.449 80.637 171.449 80.637C171.449 80.637 161.85 102.909 158.798 111.204C155.746 119.499 155.286 122.315 153.145 129.469C150.558 138.116 148.663 142.859 146.77 151.685C143.951 164.832 137.359 190.111 139 203.457Z" fill="#363435"/>
</svg>
